<!--?xml version="1.0" standalone="no"?-->
              <svg id="sw-js-blob-svg" viewBox="0 0 100 100" xmlns="http://www.w3.org/2000/svg" version="1.1">
                    <defs> 
                        <linearGradient id="sw-gradient" x1="0" x2="1" y1="1" y2="0">
                            <stop id="stop1" stop-color="rgba(116.982, 129.365, 237.995, 1)" offset="0%"></stop>
                            <stop id="stop2" stop-color="rgba(31, 232.369, 251, 1)" offset="100%"></stop>
                        </linearGradient>
                    </defs>
                <path fill="url(#sw-gradient)" d="M23.2,-29.4C30.1,-26.9,35.9,-20.2,35.2,-13.5C34.5,-6.8,27.4,-0.1,22.6,5.2C17.9,10.5,15.7,14.5,12.3,19C8.9,23.5,4.5,28.7,-0.4,29.2C-5.2,29.7,-10.4,25.6,-18.2,22.5C-26,19.4,-36.4,17.3,-39,12C-41.6,6.8,-36.4,-1.7,-31.5,-8.2C-26.6,-14.7,-22,-19.3,-16.8,-22.4C-11.6,-25.5,-5.8,-27.2,1.2,-28.8C8.1,-30.4,16.2,-31.9,23.2,-29.4Z" width="100%" height="100%" transform="translate(50 50)" stroke-width="0" style="transition: all 0.3s ease 0s;" stroke="url(#sw-gradient)"></path>
              </svg>