<?xml version="1.0" standalone="no"?>
<svg xmlns:xlink="http://www.w3.org/1999/xlink" id="wave" style="transform:rotate(0deg); transition: 0.3s" viewBox="0 0 1440 490" version="1.1" xmlns="http://www.w3.org/2000/svg"><defs><linearGradient id="sw-gradient-0" x1="0" x2="0" y1="1" y2="0"><stop stop-color="rgba(47.051, 153.828, 187.017, 1)" offset="0%"/><stop stop-color="rgba(153.414, 227.471, 255, 1)" offset="100%"/></linearGradient></defs><path style="transform:translate(0, 0px); opacity:1" fill="url(#sw-gradient-0)" d="M0,343L20,310.3C40,278,80,212,120,187.8C160,163,200,180,240,187.8C280,196,320,196,360,220.5C400,245,440,294,480,310.3C520,327,560,310,600,326.7C640,343,680,392,720,367.5C760,343,800,245,840,228.7C880,212,920,278,960,326.7C1000,376,1040,408,1080,375.7C1120,343,1160,245,1200,171.5C1240,98,1280,49,1320,24.5C1360,0,1400,0,1440,16.3C1480,33,1520,65,1560,98C1600,131,1640,163,1680,155.2C1720,147,1760,98,1800,106.2C1840,114,1880,180,1920,179.7C1960,180,2000,114,2040,98C2080,82,2120,114,2160,138.8C2200,163,2240,180,2280,179.7C2320,180,2360,163,2400,147C2440,131,2480,114,2520,138.8C2560,163,2600,229,2640,277.7C2680,327,2720,359,2760,367.5C2800,376,2840,359,2860,351.2L2880,343L2880,490L2860,490C2840,490,2800,490,2760,490C2720,490,2680,490,2640,490C2600,490,2560,490,2520,490C2480,490,2440,490,2400,490C2360,490,2320,490,2280,490C2240,490,2200,490,2160,490C2120,490,2080,490,2040,490C2000,490,1960,490,1920,490C1880,490,1840,490,1800,490C1760,490,1720,490,1680,490C1640,490,1600,490,1560,490C1520,490,1480,490,1440,490C1400,490,1360,490,1320,490C1280,490,1240,490,1200,490C1160,490,1120,490,1080,490C1040,490,1000,490,960,490C920,490,880,490,840,490C800,490,760,490,720,490C680,490,640,490,600,490C560,490,520,490,480,490C440,490,400,490,360,490C320,490,280,490,240,490C200,490,160,490,120,490C80,490,40,490,20,490L0,490Z"/></svg>